HIERARCHY
ROOT Hips
{
	OFFSET 0.00000 0.00000 0.00000
	CHANNELS 6 Xposition Yposition Zposition Zrotation Yrotation Xrotation 
	JOINT LHipJoint
	{
		OFFSET 0 0 0
		CHANNELS 3 Zrotation Yrotation Xrotation
		JOINT LeftHip
		{
			OFFSET 1.65674 -1.80282 0.62477
			CHANNELS 3 Zrotation Yrotation Xrotation
			JOINT LeftKnee
			{
				OFFSET 2.59720 -7.13576 0.00000
				CHANNELS 3 Zrotation Yrotation Xrotation
				JOINT LeftAnkle
				{
					OFFSET 2.49236 -6.84770 0.00000
					CHANNELS 3 Zrotation Yrotation Xrotation
					JOINT LeftToe
					{
						OFFSET 0.19704 -0.54136 2.14581
						CHANNELS 3 Zrotation Yrotation Xrotation
						End Site
						{
							OFFSET 0.00000 -0.00000 1.11249
						}
					}
				}
			}
		}
	}
	JOINT RHipJoint
	{
		OFFSET 0 0 0
		CHANNELS 3 Zrotation Yrotation Xrotation
		JOINT RightHip
		{
			OFFSET -1.61070 -1.80282 0.62476
			CHANNELS 3 Zrotation Yrotation Xrotation
			JOINT RightKnee
			{
				OFFSET -2.59502 -7.12977 0.00000
				CHANNELS 3 Zrotation Yrotation Xrotation
				JOINT RightAnkle
				{
					OFFSET -2.46780 -6.78024 0.00000
					CHANNELS 3 Zrotation Yrotation Xrotation
					JOINT RightToe
					{
						OFFSET -0.23024 -0.63258 2.13368
						CHANNELS 3 Zrotation Yrotation Xrotation
						End Site
						{
							OFFSET -0.00000 -0.00000 1.11569
						}
					}
				}
			}
		}
	}
	JOINT lowerback
	{
		OFFSET 0 0 0
		CHANNELS 3 Zrotation Yrotation Xrotation
		JOINT Chest
		{
			OFFSET 0.01961 2.05450 -0.14112
			CHANNELS 3 Zrotation Yrotation Xrotation
			JOINT Chest2
			{
				OFFSET 0.01021 2.06436 -0.05921
				CHANNELS 3 Zrotation Yrotation Xrotation
				JOINT lowerneck
				{
					OFFSET 0 0 0
					CHANNELS 3 Zrotation Yrotation Xrotation
					JOINT Neck
					{
						OFFSET 0.00713 1.56711 0.14968
						CHANNELS 3 Zrotation Yrotation Xrotation
						JOINT Head
						{
							OFFSET 0.03429 1.56041 -0.10006
							CHANNELS 3 Zrotation Yrotation Xrotation
							End Site
							{
								OFFSET 0.01305 1.62560 -0.05265
							}
						}
					}
				}
				JOINT LeftCollar
				{
					OFFSET 0 0 0
					CHANNELS 3 Zrotation Yrotation Xrotation
					JOINT LeftShoulder
					{
						OFFSET 3.54205 0.90436 -0.17364
CHANNELS 3 Zrotation Xrotation Yrotation
						JOINT LeftElbow
						{
OFFSET 0 -4.865130 -0.000000
CHANNELS 3 Zrotation Xrotation Yrotation
							JOINT LeftWrist
							{
OFFSET 0 -3.355540 0.000000
CHANNELS 3 Zrotation Xrotation Yrotation
								JOINT lhand
								{
									OFFSET 0 0 0
CHANNELS 3 Zrotation Xrotation Yrotation
									JOINT LFingers
									{
OFFSET 0 -0.661170 0.000000
CHANNELS 3 Zrotation Xrotation Yrotation
										End Site
										{
OFFSET 0 -0.533060 0.000000
										}
									}
								}
								JOINT LThumb
								{
OFFSET 0 0.000000 0.000000
CHANNELS 3 Zrotation Xrotation Yrotation
									End Site
									{
OFFSET 0 -0.541200 0.541200
									}
								}
							}
						}
					}
				}
				JOINT RightCollar
				{
					OFFSET 0 0 0
					CHANNELS 3 Zrotation Yrotation Xrotation
					JOINT RightShoulder
					{
						OFFSET -3.49802 0.75994 -0.32616
CHANNELS 3 Zrotation Xrotation Yrotation
						JOINT RightElbow
						{
OFFSET 0 -5.026490 0.000000
CHANNELS 3 Zrotation Xrotation Yrotation
							JOINT RightWrist
							{
OFFSET 0 -3.364310 0.000000
CHANNELS 3 Zrotation Xrotation Yrotation
								JOINT rhand
								{
									OFFSET 0 0 0
CHANNELS 3 Zrotation Xrotation Yrotation
									JOINT RFingers
									{
OFFSET 0 -0.730410 0.000000
CHANNELS 3 Zrotation Xrotation Yrotation
										End Site
										{
OFFSET 0 -0.588870 0.000000
										}
									}
								}
								JOINT RThumb
								{
OFFSET 0 0.000000 0.000000
CHANNELS 3 Zrotation Xrotation Yrotation
									End Site
									{
OFFSET 0 -0.597860 0.597860
									}
								}
							}
						}
					}
				}
			}
		}
	}
}
MOTION
Frames: 9
Frame Time: 0.008333333333333333
10.888846 17.261084 -3.977422 -19.124626 -52.468390 24.518204 0.000000 0.000000 0.000000 0.950196 9.588942 -40.791915 4.788476 13.141450 39.900560 -0.474933 14.412768 -13.690330 0.003161 0.336828 0.925462 0.000000 0.000000 0.000000 29.138856 17.433996 -18.610621 -2.445346 -9.737848 28.131887 -0.485674 -0.094103 -13.202240 -0.305075 3.550527 -9.815546 -1.840413 1.143466 16.315233 -5.246804 0.761510 8.289496 -4.618307 0.285493 -0.266643 2.841899 10.452378 -12.190764 -3.601223 13.618316 -1.881328 -0.849007 6.708332 1.917475 0.000000 0.000000 0.000000 1.831421 -46.415260 -29.932378 32.868556 -43.227386 13.332434 32.575635 -59.269208 -20.513473 0.000000 0.000000 0.000000 -7.125000 0.000000 0.000000 4.307597 53.870061 -0.941056 0.000000 0.000000 0.000000 17.327645 -43.109120 94.246182 -21.666186 -32.597719 -6.405136 -35.960382 -17.162699 -8.791851 0.000000 0.000000 0.000000 7.125000 0.000000 0.000000 -6.429718 19.198958 -3.982312
10.983481 17.256873 -3.992065 -21.741139 -55.844077 28.423871 0.000000 0.000000 0.000000 1.112852 11.659512 -42.637759 5.154444 13.555345 41.485196 -0.459595 15.025679 -15.328272 0.017448 0.821931 2.259170 0.000000 0.000000 0.000000 29.009154 18.783667 -20.167179 -2.385918 -9.627417 27.778347 -0.381424 2.034496 -11.135453 -0.302105 3.533627 -9.768143 -3.841041 0.735751 16.709570 -6.508002 -0.177480 8.521175 -4.686294 -0.247177 -0.276637 3.350426 11.552960 -11.404464 -4.749888 15.045244 -3.068444 -1.265162 7.419026 1.572359 0.000000 0.000000 0.000000 0.314455 -45.441278 -32.335027 29.871990 -40.783243 11.325960 31.621309 -61.832262 -19.829598 0.000000 0.000000 0.000000 -7.125000 0.000000 0.000000 3.378537 52.901348 -0.665564 0.000000 0.000000 0.000000 14.679622 -41.687421 92.348654 -21.738993 -32.680716 -6.444397 -35.111048 -16.357804 -7.382079 0.000000 0.000000 0.000000 7.125000 0.000000 0.000000 -5.997790 21.000755 -3.469441
11.055152 17.223347 -3.995709 -24.658589 -58.184966 32.142938 0.000000 0.000000 0.000000 1.658542 13.264697 -43.958577 5.443134 13.866072 42.703561 -0.440319 15.447213 -16.507090 0.066024 1.651996 4.544930 0.000000 0.000000 0.000000 29.435507 19.786191 -21.401518 -2.364532 -9.587329 27.650460 -0.271623 3.420263 -9.263428 -0.236786 3.131604 -8.645285 -5.379165 0.047532 17.515525 -7.566544 -1.468638 8.645165 -4.737873 -0.939097 -0.611905 3.077232 12.499817 -11.420685 -5.250198 16.342497 -3.502865 -1.304231 8.072081 1.499825 0.000000 0.000000 0.000000 -1.641633 -43.932659 -32.896455 27.750554 -38.881601 9.968179 27.858802 -61.448011 -21.612144 0.000000 0.000000 0.000000 -7.125000 0.000000 0.000000 -0.897732 54.141407 0.118303 0.000000 0.000000 0.000000 12.392953 -40.254523 90.531472 -21.813252 -32.765174 -6.484534 -34.553077 -15.349296 -6.939733 0.000000 0.000000 0.000000 7.125000 0.000000 0.000000 -5.647119 21.589210 -3.187877
11.117966 17.165672 -4.003373 -30.193490 -59.654020 37.814438 0.000000 0.000000 0.000000 3.604782 15.235116 -45.077514 5.717015 14.148344 43.835095 -0.575173 16.475929 -16.518059 0.004395 0.378828 1.040869 0.000000 0.000000 0.000000 31.420815 20.798962 -21.804345 -2.271318 -9.409601 27.085327 -0.185529 4.968607 -7.901729 -0.313278 3.597408 -9.946751 -5.289377 -0.642587 18.170473 -8.396302 -2.488476 8.970247 -5.505832 -1.455010 -0.684737 3.213828 13.256652 -10.947902 -6.577233 17.308917 -4.924858 -1.742536 8.567351 1.137884 0.000000 0.000000 0.000000 -2.740052 -42.521578 -34.709418 25.875363 -37.085242 8.812375 25.333233 -64.868673 -16.892832 0.000000 0.000000 0.000000 -7.125000 0.000000 0.000000 -2.468207 48.538809 0.208490 0.000000 0.000000 0.000000 10.093259 -39.148094 88.867255 -22.085324 -33.073236 -6.632345 -33.817651 -14.777289 -6.473895 0.000000 0.000000 0.000000 7.125000 0.000000 0.000000 -5.163994 22.213076 -2.839704
11.154735 17.176500 -4.015577 -30.525122 -61.558659 38.419177 0.000000 0.000000 0.000000 3.391110 14.938817 -44.418028 5.659594 14.090204 43.599924 -0.684401 17.753761 -17.622687 0.015443 0.797344 2.191404 0.000000 0.000000 0.000000 30.573289 21.362742 -21.944074 -2.253726 -9.375680 26.977776 -0.140362 5.703187 -7.250831 -0.361823 3.863367 -10.692621 -7.390299 -1.147832 19.318457 -9.594197 -3.728923 9.395108 -5.384360 -2.145766 -0.820908 2.557385 13.737263 -11.967340 -7.128478 17.993636 -5.127462 -1.704109 8.899452 1.263248 0.000000 0.000000 0.000000 -5.651946 -41.241141 -35.053094 26.246049 -37.450549 9.036886 27.100445 -62.458578 -20.607663 0.000000 0.000000 0.000000 -7.125000 0.000000 0.000000 -1.503662 52.871685 0.295574 0.000000 0.000000 0.000000 7.098376 -38.222637 87.500471 -22.613854 -33.663872 -6.923046 -33.671756 -15.490784 -6.587318 0.000000 0.000000 0.000000 7.125000 0.000000 0.000000 -5.046822 22.090357 -2.789165
11.189021 17.140705 -4.018118 -34.552036 -62.654189 42.968656 0.000000 0.000000 0.000000 4.745546 15.465095 -44.860877 5.813332 14.244966 44.227948 -0.648487 18.307903 -19.291847 0.054688 1.508761 4.149944 0.000000 0.000000 0.000000 31.456805 22.573433 -22.583796 -2.244425 -9.357612 26.920398 -0.051312 6.744431 -5.903246 -0.258721 3.259247 -9.002411 -7.229289 -1.624890 19.796740 -10.441522 -4.497294 9.198659 -6.229387 -2.515645 -1.396663 2.629198 13.953685 -11.255215 -8.308991 18.215700 -6.321392 -2.152005 9.037909 0.901532 0.000000 0.000000 0.000000 -7.435929 -39.508343 -36.390976 25.621717 -36.832617 8.659903 28.691617 -61.729426 -19.647036 0.000000 0.000000 0.000000 -7.125000 0.000000 0.000000 0.344155 52.122525 -0.053772 0.000000 0.000000 0.000000 4.677348 -36.745234 85.888605 -22.954144 -34.038526 -7.112669 -33.698096 -15.445800 -6.777572 0.000000 0.000000 0.000000 7.125000 0.000000 0.000000 -5.047128 21.861763 -2.815507
11.188638 17.113872 -4.037401 -36.371862 -63.870210 45.073785 0.000000 0.000000 0.000000 4.830642 16.257878 -44.918996 5.896755 14.327506 44.565953 -0.650778 18.538696 -19.728954 0.027892 1.073880 2.952195 0.000000 0.000000 0.000000 31.412662 24.105097 -22.414730 -2.219992 -9.310010 26.769924 -0.048783 6.543154 -5.738688 -0.291043 3.469036 -9.587576 -8.296812 -1.994520 20.214235 -11.151303 -5.320339 9.163421 -6.226797 -2.951143 -1.666647 2.508679 14.329074 -10.827212 -9.505195 18.651071 -7.328002 -2.540864 9.285035 0.646919 0.000000 0.000000 0.000000 -9.472059 -38.211667 -36.172296 24.991160 -36.194426 8.284941 28.064177 -60.427335 -20.176806 0.000000 0.000000 0.000000 -7.125000 0.000000 0.000000 -0.403720 52.587998 0.074374 0.000000 0.000000 0.000000 2.550292 -35.162591 85.093581 -23.617807 -34.757381 -7.487557 -33.577794 -17.120293 -8.277088 0.000000 0.000000 0.000000 7.125000 0.000000 0.000000 -4.807116 20.092289 -2.873044
11.184139 17.100351 -4.064557 -38.841557 -63.967145 47.588759 0.000000 0.000000 0.000000 5.952428 16.554449 -44.839486 5.926197 14.356449 44.684685 -0.619394 18.685369 -20.404004 0.054170 1.501199 4.128992 0.000000 0.000000 0.000000 32.303337 25.031437 -22.169649 -2.177274 -9.225900 26.504515 -0.029190 6.341492 -5.172917 -0.163945 2.605028 -7.181104 -8.115108 -2.166688 20.702403 -11.434854 -5.604760 9.429750 -6.573139 -3.099064 -1.687118 1.454252 14.269151 -12.326239 -8.781046 18.703780 -6.963062 -2.046302 9.296952 0.821016 0.000000 0.000000 0.000000 -11.377618 -37.117718 -37.633924 24.948934 -36.151732 8.259737 29.986733 -61.702858 -16.425396 0.000000 0.000000 0.000000 -7.125000 0.000000 0.000000 2.155989 48.763951 -0.199639 0.000000 0.000000 0.000000 0.558103 -34.082485 83.664011 -24.239169 -35.416140 -7.844719 -33.496302 -16.625454 -7.030401 0.000000 0.000000 0.000000 7.125000 0.000000 0.000000 -4.876149 21.579375 -2.751011
11.182401 17.108036 -4.083748 -39.713481 -64.629122 48.521375 0.000000 0.000000 0.000000 5.972127 16.544666 -44.357179 5.854680 14.286058 44.395705 -0.716304 19.410293 -20.663851 0.049943 1.440300 3.961176 0.000000 0.000000 0.000000 32.244739 25.715191 -21.904147 -2.148136 -9.167980 26.322276 -0.029051 6.419558 -5.216813 -0.258583 3.271514 -9.035591 -8.751982 -2.204610 21.289260 -11.503955 -5.900339 9.270191 -6.192025 -3.249890 -2.122080 2.158136 14.395095 -11.114117 -10.625146 18.657957 -8.365784 -2.858119 9.310934 0.446277 0.000000 0.000000 0.000000 -13.213296 -35.663832 -37.734771 24.731724 -35.928448 8.132014 29.112028 -60.110276 -17.493195 0.000000 0.000000 0.000000 -7.125000 0.000000 0.000000 1.144345 49.812677 -0.135316 0.000000 0.000000 0.000000 -1.473966 -32.524373 83.178284 -24.674475 -35.869360 -8.098382 -33.861743 -17.200675 -7.351622 0.000000 0.000000 0.000000 7.125000 0.000000 0.000000 -5.106632 21.163122 -2.930029
